<svg xmlns="http://www.w3.org/2000/svg" width="126" height="126" viewBox="0 0 126 126"><defs><style>.cls-1{fill:#041e42;}.cls-2{fill:#fff;}</style></defs><g id="Layer_2" data-name="Layer 2"><g id="primary_blue" data-name="primary blue"><path class="cls-1" d="M126,62.79V63A63,63,0,0,1,0,63v-.21a63,63,0,0,1,126,0Z"/><path class="cls-2" d="M104.17,41.15V84.84a3.48,3.48,0,0,1-3.47,3.47H27.76a3.46,3.46,0,0,1-3.45-3.47V41.15a3.44,3.44,0,0,1,3.45-3.45H100.7A3.46,3.46,0,0,1,104.17,41.15Z"/><path class="cls-1" d="M53.47,54.07a7.22,7.22,0,1,1-7.22-7.26A7.25,7.25,0,0,1,53.47,54.07Z"/><path class="cls-1" d="M57.48,77.13H35c.19-9.29,1.75-12.72,11.22-12.72S57.3,67.84,57.48,77.13Z"/><path class="cls-1" d="M93.47,77.54H66.62a1.09,1.09,0,0,1,0-2.18H93.47a1.09,1.09,0,0,1,0,2.18Z"/><path class="cls-1" d="M93.47,68.4H66.62a1.09,1.09,0,0,1,0-2.18H93.47a1.09,1.09,0,0,1,0,2.18Z"/><path class="cls-1" d="M93.47,59.25H66.62a1.09,1.09,0,1,1,0-2.17H93.47a1.09,1.09,0,1,1,0,2.17Z"/><path class="cls-1" d="M93.47,50.11H66.62a1.09,1.09,0,0,1,0-2.18H93.47a1.09,1.09,0,0,1,0,2.18Z"/></g></g></svg>